<svg id="Capa_1" enable-background="new 0 0 511.986 511.986" height="512" viewBox="0 0 511.986 511.986" width="512" xmlns="http://www.w3.org/2000/svg"><g><path d="m201.526 332.927c-15.36-54.986-93.568-114.707-105.308-179.002-13.135-71.933 38.817-139.272 111.74-144.664 32.023-2.368 64.047-2.368 96.07 0 72.923 5.392 124.875 72.731 111.74 144.663-11.74 64.295-89.948 124.016-105.308 179.002h-108.934z" fill="#dd636e"/><path d="m304.028 9.261c-21.505-1.59-43.01-2.086-64.515-1.541 10.518.267 21.037.763 31.555 1.541 72.923 5.392 124.875 72.731 111.74 144.663-11.74 64.295-89.948 124.016-105.308 179.003h32.96c15.36-54.986 93.568-114.707 105.308-179.002 13.135-71.933-38.818-139.272-111.74-144.664z" fill="#da4a54"/><path d="m286.33 504.485h-60.675c-11.719 0-21.826-8.23-24.202-19.705l-15.378-74.288h139.835l-15.378 74.288c-2.376 11.476-12.483 19.705-24.202 19.705z" fill="#b48e84"/><path d="m303.987 410.493-15.378 74.288c-2.375 11.475-12.483 19.705-24.202 19.705h21.923c11.719 0 21.826-8.229 24.202-19.705l15.378-74.288z" fill="#a77d73"/><path d="m244.993 448.407c0 9.301-6.857 9.081-15.316 9.081s-15.316.22-15.316-9.081 6.857-16.842 15.316-16.842c8.459.001 15.316 7.541 15.316 16.842z" fill="#f6f6f6"/><path d="m297.625 448.407c0 9.301-6.857 9.081-15.316 9.081s-15.316.22-15.316-9.081 6.857-16.842 15.316-16.842c8.458.001 15.316 7.541 15.316 16.842z" fill="#f6f6f6"/><path d="m255.993 55.991c45.708 0 86.377-8.904 112.414-22.741-18.03-13.476-40.033-22.189-64.379-23.989-32.023-2.368-64.047-2.368-96.07 0-24.347 1.8-46.35 10.513-64.379 23.989 26.036 13.837 66.706 22.741 112.414 22.741z" fill="#e4989d"/><path d="m271.068 9.261c29.575 2.187 55.7 14.564 75.434 33.304 8.102-2.762 15.454-5.887 21.905-9.315-18.03-13.476-40.033-22.189-64.379-23.989-21.505-1.59-43.01-2.086-64.515-1.541 10.518.267 21.036.764 31.555 1.541z" fill="#e28086"/><path d="m398.051 51.987c-22.504-29.106-56.585-47.478-93.471-50.206-32.118-2.374-65.02-2.377-97.176 0-36.839 2.724-70.938 21.063-93.472 50.206-22.596 29.226-31.741 66.872-25.092 103.286 6.096 33.38 28.142 64.197 52.142 95.45 2.522 3.286 7.231 3.905 10.516 1.381 3.286-2.522 3.904-7.23 1.381-10.516-22.836-29.739-43.788-58.924-49.282-89.011-5.886-32.232 2.207-65.552 22.204-91.415 5.5-7.114 11.778-13.493 18.663-19.058 12.731 6.172 27.904 11.138 44.765 14.727-8.887 28.067-12.448 63.467-9.749 97.684 2.821 35.751 14.104 69.553 25.016 102.241 4.351 13.035 8.579 25.719 12.13 38.1h-24.817c-6.232-9.988-13.386-19.858-20.614-29.426-2.496-3.306-7.198-3.962-10.505-1.464-3.305 2.496-3.961 7.199-1.464 10.505 5.054 6.691 10.057 13.521 14.69 20.385h-2.602c-4.143 0-7.5 3.357-7.5 7.5s3.357 7.5 7.5 7.5h11.983c4.833 8.49 8.723 16.919 11.006 25.089.905 3.241 3.858 5.482 7.224 5.482h2.632c5.753 21.511 1.716 42.06-12.275 62.565h-24.74c-4.143 0-7.5 3.357-7.5 7.5s3.357 7.5 7.5 7.5h12.827l14.141 68.309c3.081 14.883 16.348 25.685 31.546 25.685h60.675c15.198 0 28.465-10.802 31.546-25.685l1.484-7.172c.839-4.057-1.769-8.025-5.824-8.865-4.06-.838-8.026 1.768-8.865 5.824l-1.484 7.173c-1.646 7.952-8.735 13.725-16.856 13.725h-60.675c-8.121 0-15.211-5.772-16.857-13.726l-13.511-65.267h.467c.004 0 .009.001.013.001.006 0 .011-.001.017-.001h26.393v7.43c-8.907 3.318-15.316 12.365-15.316 22.984 0 9.636 5.549 13.44 8.857 14.851 4.072 1.736 8.593 1.734 13.389 1.73 4.928-.03 10.007.197 14.529-1.73 3.309-1.41 8.857-5.215 8.857-14.851 0-10.619-6.41-19.667-15.316-22.984v-7.43h37.632v7.43c-8.907 3.318-15.316 12.365-15.316 22.984 0 9.636 5.549 13.44 8.857 14.851 4.073 1.736 8.609 1.734 13.389 1.73 4.928-.03 10.007.197 14.529-1.73 3.308-1.411 8.856-5.216 8.856-14.851 0-10.619-6.409-19.666-15.315-22.984v-7.43h26.393c.006 0 .011.001.017.001.004 0 .008-.001.013-.001h.466l-5.818 28.107c-.839 4.057 1.769 8.025 5.824 8.865 4.058.828 8.025-1.77 8.865-5.824l6.448-31.149h12.827c4.143 0 7.5-3.357 7.5-7.5s-3.357-7.5-7.5-7.5h-24.74c-13.992-20.505-18.03-41.054-12.276-62.565h2.632c3.365 0 6.318-2.241 7.224-5.482 2.285-8.178 6.1-16.542 10.966-25.089h12.023c4.143 0 7.5-3.357 7.5-7.5s-3.357-7.5-7.5-7.5h-2.622c7.875-11.646 17.114-23.611 26.598-35.888 25.471-32.971 51.81-67.064 58.498-103.695 6.644-36.415-2.502-74.061-25.1-103.286zm-160.639 397.6c-1.626.47-6.14.403-8.314.401-2.331-.001-5.749.005-7.156-.401-.041-.247-.081-.628-.081-1.18 0-5.151 3.507-9.342 7.816-9.342s7.816 4.19 7.816 9.342c0 .552-.04.933-.081 1.18zm52.631 0c-1.626.47-6.16.403-8.313.401-2.338-.001-5.75.005-7.156-.401-.041-.247-.081-.628-.081-1.18 0-5.151 3.507-9.342 7.816-9.342s7.815 4.19 7.815 9.342c0 .552-.04.934-.081 1.18zm62.994-417.463c-10.416 4.234-22.436 7.75-35.512 10.424-4.491-10.57-9.723-19.269-15.531-25.902.493.035.988.059 1.481.096 17.65 1.304 34.577 6.656 49.562 15.382zm-144.527-15.384c.493-.036.988-.06 1.481-.096-5.809 6.633-11.041 15.332-15.532 25.902-13.076-2.673-25.096-6.19-35.512-10.424 14.986-8.724 31.913-14.076 49.563-15.382zm10.213 235.267c-10.626-31.833-21.614-64.75-24.291-98.672-2.611-33.1.913-67.228 9.66-93.766 11.635 1.824 23.898 3.038 36.583 3.586.11.005.22.007.33.007 3.992 0 7.312-3.148 7.487-7.176.179-4.139-3.03-7.638-7.169-7.817-10.855-.47-21.467-1.477-31.624-2.963 7.634-16.524 17.226-26.914 26.803-28.553 6.453-1.104 12.951-1.656 19.45-1.659h.081c6.499.002 12.997.554 19.45 1.659 9.577 1.639 19.17 12.029 26.804 28.553-10.157 1.486-20.769 2.493-31.624 2.963-4.139.18-7.348 3.679-7.169 7.817.175 4.028 3.495 7.176 7.487 7.176.109 0 .22-.002.33-.007 12.686-.549 24.949-1.762 36.583-3.586 8.746 26.538 12.271 60.667 9.659 93.766-2.677 33.923-13.664 66.84-24.29 98.674-4.891 14.651-9.633 28.873-13.489 42.847h-47.562c-3.856-13.975-8.599-28.197-13.489-42.849zm37.269 101.602-7.252-13.182h14.505zm-17.002-28.182c-.805-5.17-1.826-10.358-3.002-15.571h40.008c-1.176 5.213-2.197 10.401-3.002 15.571zm-38.662-15.571h20.262c1.252 5.243 2.331 10.433 3.195 15.571h-14.21c-.01 0-.019 0-.029 0h-2.516c-1.793-5.18-4.07-10.379-6.702-15.571zm19.26 30.571h12.031l16.873 30.667v31.898h-38.963c11.416-20.256 14.788-41.217 10.059-62.565zm82.868 62.565h-38.963v-31.898l16.874-30.667h12.031c-4.731 21.349-1.359 42.31 10.058 62.565zm2.492-77.565h-16.748c.865-5.139 1.943-10.328 3.195-15.571h20.227c-2.629 5.198-4.886 10.384-6.674 15.571zm103.442-172.85c-6.034 33.043-31.238 65.669-55.612 97.221-11.894 15.395-23.423 30.322-32.633 45.058h-24.783c3.551-12.38 7.779-25.063 12.13-38.098 10.911-32.689 22.194-66.491 25.015-102.243 2.7-34.217-.862-69.617-9.749-97.684 16.861-3.588 32.034-8.554 44.765-14.727 6.885 5.565 13.162 11.944 18.663 19.058 19.996 25.863 28.09 59.183 22.204 91.415z"/></g></svg>