<svg id="Capa_1" enable-background="new 0 0 512.072 512.072" height="512" viewBox="0 0 512.072 512.072" width="512" xmlns="http://www.w3.org/2000/svg"><g><circle cx="256.132" cy="256.036" fill="#6bbef6" r="196.422"/><path d="m256.132 59.614c-5.099 0-10.152.195-15.153.576 101.4 7.736 181.269 92.463 181.269 195.845s-79.868 188.11-181.268 195.846c5.001.382 10.054.576 15.153.576 108.481 0 196.422-87.941 196.422-196.422s-87.942-196.421-196.423-196.421z" fill="#5ea5ec"/><circle cx="256.132" cy="256.036" fill="#dfdfdf" r="113.544"/><path d="m256.132 142.492c-4.894 0-9.716.31-14.447.911 55.887 7.097 99.096 54.819 99.096 112.633s-43.21 105.536-99.096 112.633c4.731.601 9.553.911 14.447.911 62.708 0 113.544-50.835 113.544-113.544s-50.835-113.544-113.544-113.544z" fill="#cbcbcb"/><path d="m268.625 268.625 222.344-178.937c16.899-13.6 18.261-38.856 2.923-54.195-9.419-9.419-23.227-12.959-36.015-9.228-86.714 25.3-155.597 112.307-221.303 210.309z" fill="#365e7d"/><path d="m493.892 35.493c-3.944-3.944-8.662-6.841-13.747-8.621 4.889 14.049.885 30.399-11.57 40.422l-222.344 178.937 22.394 22.394 222.344-178.937c16.899-13.6 18.261-38.856 2.923-54.195z" fill="#2b4d66"/><path d="m243.447 268.625 178.937 222.344c13.6 16.899 38.856 18.261 54.195 2.923 9.419-9.419 12.959-23.227 9.228-36.015-25.3-86.714-112.307-155.597-210.309-221.303z" fill="#365e7d"/><path d="m476.579 493.891c3.944-3.944 6.841-8.662 8.621-13.747-14.049 4.889-30.399.885-40.422-11.57l-178.937-222.343-22.394 22.394 178.937 222.344c13.6 16.899 38.856 18.261 54.195 2.922z" fill="#2b4d66"/><path d="m243.447 243.447-222.344 178.936c-16.899 13.6-18.261 38.856-2.923 54.195 9.419 9.419 23.227 12.959 36.015 9.228 86.714-25.3 155.597-112.307 221.303-210.309z" fill="#365e7d"/><path d="m18.18 476.578c3.944 3.944 8.662 6.841 13.747 8.621-4.889-14.049-.885-30.399 11.57-40.422l222.344-178.937-22.394-22.394-222.344 178.937c-16.899 13.601-18.261 38.857-2.923 54.195z" fill="#2b4d66"/><path d="m268.625 243.447-178.936-222.344c-13.601-16.899-38.857-18.261-54.195-2.923-9.419 9.419-12.959 23.227-9.228 36.015 25.3 86.714 112.307 155.597 210.309 221.303z" fill="#365e7d"/><path d="m35.493 18.18c-3.944 3.944-6.841 8.662-8.621 13.747 14.049-4.889 30.399-.885 40.422 11.57l178.937 222.344 22.394-22.394-178.936-222.344c-13.601-16.899-38.857-18.261-54.196-2.923z" fill="#2b4d66"/><circle cx="256.132" cy="256.036" fill="#f6f6f6" r="46.382"/><path d="m256.132 209.654c-5.045 0-9.897.816-14.445 2.306 18.541 6.073 31.938 23.505 31.938 44.076s-13.397 38.003-31.938 44.076c4.547 1.49 9.399 2.306 14.445 2.306 25.616 0 46.382-20.766 46.382-46.382s-20.766-46.382-46.382-46.382z" fill="#eaeaea"/><g><path d="m499.195 30.189c-11.362-11.36-28-15.622-43.418-11.124-5.142 1.5-10.406 3.275-15.646 5.278-3.869 1.479-5.807 5.814-4.328 9.684 1.479 3.868 5.812 5.809 9.684 4.328 4.861-1.858 9.736-3.504 14.49-4.89 10.16-2.969 21.125-.156 28.611 7.33 5.808 5.808 8.885 13.843 8.442 22.043-.442 8.201-4.366 15.857-10.764 21.007l-36.649 29.494-50.411-50.411c6.383-4.351 12.869-8.397 19.466-12.047 3.624-2.005 4.937-6.569 2.932-10.193-2.006-3.623-6.567-4.938-10.193-2.932-18.661 10.326-37.075 23.654-55.681 40.302-30.301-16.982-64.639-25.943-99.598-25.943-.027 0-.054.001-.082.001-.005 0-.01-.001-.015-.001-.007 0-.014.001-.021.001-38.087.022-75.035 10.553-107.198 30.499-11.372-14.131-40.553-50.39-53.286-66.212-7.814-9.714-19.436-15.668-31.883-16.34-12.444-.67-24.642 3.999-33.457 12.814-11.361 11.36-15.624 27.998-11.125 43.419 11.04 37.839 33.033 71.011 59.105 100.157-16.977 30.291-25.96 64.643-25.96 99.583 0 .027.001.054.001.081 0 .005-.001.01-.001.015 0 .007.001.014.001.021.021 38.045 10.528 74.946 30.426 107.083-14.223 11.446-50.647 40.76-66.237 53.306-9.711 7.815-15.666 19.437-16.337 31.884-.671 12.448 3.999 24.643 12.813 33.456 8.369 8.37 19.602 12.888 31.103 12.888 4.111 0 8.256-.577 12.316-1.762 37.597-10.969 70.911-32.979 100.125-59.056 30.328 17.023 64.709 26.006 99.711 26.006h.064c.011 0 .021.001.032.001.016 0 .032-.002.048-.002 10.819-.008 21.731-.881 32.435-2.6 4.09-.657 6.872-4.505 6.216-8.595-.656-4.089-4.493-6.872-8.595-6.216-7.465 1.199-15.039 1.955-22.604 2.259v-67.966c16.357-1.028 32.364-5.374 46.935-12.729l43.158 53.627c-12.185 7.376-25.148 13.363-38.654 17.803-3.936 1.294-6.076 5.532-4.783 9.467 1.038 3.158 3.972 5.16 7.124 5.16.775 0 1.565-.121 2.343-.377 15.221-5.003 29.812-11.81 43.462-20.259 11.395 14.159 40.668 50.533 53.228 66.141 8.186 10.172 20.723 16.401 34.244 16.401 11.618 0 22.841-4.621 31.098-12.877 11.36-11.361 15.623-27.998 11.125-43.419-10.904-37.372-32.751-70.641-58.982-100.045 17.022-30.319 26.029-64.708 26.029-99.695 0-.027-.001-.055-.001-.082 0-.005.001-.01.001-.015 0-.007-.001-.014-.001-.021-.022-38.091-10.55-75.023-30.491-107.184 14.144-11.382 50.462-40.61 66.109-53.203 9.711-7.815 15.666-19.437 16.337-31.884.672-12.449-3.998-24.643-12.813-33.459zm-61.331 92.61-134.16 107.968c-7.216-13.53-20.033-23.628-35.337-27.197 31.996-45.242 72.171-96.463 118.52-131.749zm2.423 264.05-51.014 51.014-107.995-134.193c13.552-7.183 23.682-19.977 27.288-35.268 48.35 34.185 97.526 73.32 131.721 118.447zm-315.066 53.437-51.013-51.013 134.296-108.078c7.181 13.538 19.961 23.659 35.237 27.269-34.206 48.389-73.366 97.606-118.52 131.822zm24.868-184.25c0-10.282 1.453-20.358 4.323-30.069 14.424 11.228 30.369 22.936 48.099 35.325.161 1.657.405 3.29.713 4.9l-43.18 34.75c-6.528-13.975-9.955-29.364-9.955-44.906zm106.043-106.044c10.269 0 20.334 1.451 30.035 4.314-11.215 14.405-22.887 30.313-35.322 48.109-1.698.166-3.372.417-5.021.738l-34.717-43.138c14.015-6.569 29.414-10.023 45.025-10.023zm-1.232 67.192c.004 0 .008.001.013.001.013 0 .025-.002.037-.002 22.077-.664 40.064 17.106 40.064 38.853 0 21.439-17.442 38.882-38.882 38.882s-38.882-17.442-38.882-38.882c0-21.027 16.779-38.197 37.65-38.852zm107.275 38.852c0 10.292-1.474 20.383-4.353 30.111-15.837-12.317-32.037-24.045-48.058-35.235-.166-1.748-.418-3.471-.747-5.167l43.143-34.72c6.563 14.009 10.015 29.41 10.015 45.011zm-36.731-148.151c-9.626 10.341-19.322 21.537-29.319 33.878-10.509-3.681-21.425-5.87-32.588-6.541v-67.948c28.197 1.102 55.759 8.489 80.593 21.572-6.193 5.975-12.415 12.302-18.686 19.039zm-76.908-40.615v67.965c-16.413 1.03-32.457 5.398-47.071 12.798l-43.17-53.642c27.295-16.557 58.229-25.85 90.241-27.121zm-207.739-43.786c5.807-5.809 13.846-8.897 22.042-8.442 8.201.442 15.857 4.365 21.007 10.764l29.494 36.648-50.43 50.429c-13.732-20.206-23.487-40.37-29.445-60.789-2.964-10.161-.155-21.123 7.332-28.61zm62.642 158.959c3 2.856 7.746 2.741 10.604-.258 2.856-3 2.741-7.747-.259-10.604-16.379-15.599-30.342-31.009-41.997-46.362l51.013-51.012 108.05 134.264c-13.515 7.213-23.603 20.016-27.176 35.302-26.545-18.798-48.845-35.991-67.901-52.349-3.144-2.698-7.878-2.338-10.576.806-2.698 3.143-2.337 7.878.806 10.575 5.059 4.343 10.348 8.743 15.865 13.209-3.687 10.517-5.879 21.443-6.55 32.617h-67.947c1.102-28.188 8.486-55.767 21.566-80.596 4.622 4.794 9.448 9.595 14.502 14.408zm-36.073 81.189h67.962c1.029 16.356 5.373 32.388 12.73 46.956l-53.643 43.17c-16.514-27.267-25.78-58.157-27.049-90.126zm-15.271 214.974c-10.164 2.966-21.125.154-28.612-7.332-5.807-5.807-8.884-13.841-8.442-22.042.442-8.2 4.366-15.856 10.764-21.006l36.649-29.494 50.423 50.423c-19.187 13.023-39.422 23.22-60.782 29.451zm163.948-108.33c10.537 3.701 21.486 5.9 32.685 6.573v67.948c-28.233-1.103-55.829-8.507-80.686-21.621 16.918-16.284 32.889-34.228 48.001-52.9zm40.089-8.197c-10.308 0-20.408-1.46-30.142-4.343 12.316-15.84 24.044-32.042 35.234-48.065 1.707-.161 3.389-.406 5.046-.722l34.747 43.176c-13.973 6.523-29.335 9.954-44.885 9.954zm215.143 126.509c-5.807 5.807-13.842 8.886-22.042 8.442-8.2-.442-15.857-4.365-21.007-10.764l-29.493-36.648 50.424-50.424c13.021 19.187 23.218 39.422 29.45 60.783 2.965 10.162.155 21.124-7.332 28.611zm-100.9-192.48c3.697-10.535 5.898-21.48 6.571-32.668h67.948c-1.104 28.226-8.506 55.837-21.62 80.689-16.282-16.927-34.226-32.904-52.899-48.021zm74.524-47.669h-67.966c-1.031-16.406-5.397-32.45-12.791-47.057l53.645-43.172c16.554 27.292 25.841 58.215 27.112 90.229z"/><path d="m256.132 269.335c4.143 0 7.5-3.357 7.5-7.5v-11.598c0-4.143-3.357-7.5-7.5-7.5-4.142 0-7.5 3.357-7.5 7.5v11.598c0 4.142 3.358 7.5 7.5 7.5z"/></g></g></svg>