<svg id="Capa_1" enable-background="new 0 0 512 512" height="512" viewBox="0 0 512 512" width="512" xmlns="http://www.w3.org/2000/svg"><g><path d="m340.349 408.509h-173.751v-242.644c0-50.118 18.979-98.377 53.118-135.07l13.445-14.45c10.974-11.794 29.652-11.794 40.626 0l13.445 14.45c34.14 36.692 53.118 84.951 53.118 135.07v242.644z" fill="#dd636e"/><path d="m287.231 30.795-13.445-14.45c-8.687-9.336-22.197-11.274-32.896-5.83 2.817 1.434 5.442 3.372 7.729 5.83l13.445 14.45c34.14 36.692 53.118 84.951 53.118 135.07v242.644h25.167v-242.644c0-50.118-18.978-98.378-53.118-135.07z" fill="#da4a54"/><path d="m221.588 221.337-6.717 61.376c-4.248 38.814-28.671 72.502-64.24 88.609-15.961 7.228-26.215 23.128-26.215 40.649v35.506c0 3.326 2.696 6.023 6.022 6.023h246.071c3.326 0 6.022-2.696 6.022-6.023v-35.506c0-17.522-10.254-33.422-26.215-40.649-35.569-16.107-59.992-49.795-64.24-88.609l-6.717-61.376c-2.033-18.578-10.37-35.899-23.622-49.077-4.571-4.546-11.956-4.546-16.527 0-13.252 13.178-21.589 30.499-23.622 49.077z" fill="#f6f6f6"/><path d="m356.316 371.322c-35.569-16.107-59.992-49.795-64.24-88.609l-6.717-61.376c-2.033-18.578-10.37-35.899-23.622-49.077-4.571-4.546-11.956-4.546-16.527 0-1.618 1.609-3.161 3.282-4.63 5.01 10.562 12.419 17.207 27.758 18.992 44.067l6.717 61.376c4.248 38.814 28.671 72.502 64.24 88.609 15.961 7.228 26.215 23.128 26.215 40.65v35.506c0 3.326-2.697 6.022-6.023 6.022h25.787c3.326 0 6.022-2.696 6.022-6.022v-35.506c.002-17.523-10.253-33.422-26.214-40.65z" fill="#eaeaea"/><path d="m119.657 345.494h-6.543c-11.473 0-20.774-9.301-20.774-20.774v-162.402c0-17.501 6.676-34.343 18.667-47.09 2.916-3.1 7.841-3.1 10.757 0 11.991 12.748 18.667 29.59 18.667 47.09v162.402c0 11.473-9.301 20.774-20.774 20.774z" fill="#eab14d"/><path d="m121.764 115.228c-2.916-3.1-7.841-3.1-10.757 0-1.462 1.554-2.842 3.172-4.144 4.842 9.373 12.025 14.523 26.882 14.523 42.248v162.402c0 9.294-6.105 17.159-14.523 19.813 1.973.622 4.072.961 6.251.961h6.543c11.473 0 20.774-9.301 20.774-20.774v-162.402c0-17.5-6.676-34.342-18.667-47.09z" fill="#e49542"/><path d="m392.344 345.494h6.543c11.473 0 20.774-9.301 20.774-20.774v-162.402c0-17.501-6.676-34.343-18.667-47.09-2.916-3.1-7.841-3.1-10.757 0-11.991 12.748-18.667 29.59-18.667 47.09v162.402c0 11.473 9.301 20.774 20.774 20.774z" fill="#eab14d"/><path d="m400.994 115.228c-2.916-3.1-7.841-3.1-10.757 0-1.462 1.554-2.842 3.172-4.144 4.842 9.373 12.025 14.523 26.882 14.523 42.248v162.402c0 9.294-6.105 17.159-14.523 19.813 1.973.622 4.072.961 6.251.961h6.543c11.473 0 20.774-9.301 20.774-20.774v-162.402c-.001-17.501-6.677-34.342-18.667-47.09z" fill="#e49542"/><path d="m183.109 504.5h-41.947c-5.544 0-9.71-5.059-8.647-10.5l7.916-40.5h43.409l7.916 40.5c1.063 5.44-3.103 10.5-8.647 10.5z" fill="#365e7d"/><path d="m136.815 471.997h50.64l-3.616-18.498h-43.408z" fill="#2b4d66"/><path d="m274.447 504.5h-41.947c-5.544 0-9.71-5.059-8.647-10.5l7.916-40.5h43.409l7.916 40.5c1.063 5.44-3.103 10.5-8.647 10.5z" fill="#365e7d"/><path d="m228.154 471.997h50.639l-3.615-18.498h-43.409z" fill="#2b4d66"/><path d="m365.785 504.5h-41.947c-5.544 0-9.71-5.059-8.647-10.5l7.916-40.5h43.409l7.916 40.5c1.064 5.44-3.102 10.5-8.647 10.5z" fill="#365e7d"/><path d="m319.492 471.997h50.64l-3.616-18.498h-43.408z" fill="#2b4d66"/><g><path d="m227.588 282.515c-1.945 36.7-12.774 68.646-28.262 83.372-9.14 8.69-14.816 26.349-14.816 46.085v12.966c0 4.143 3.357 7.5 7.5 7.5s7.5-3.357 7.5-7.5v-12.966c0-17.657 5.1-30.41 10.153-35.215 18.431-17.525 30.731-52.459 32.903-93.449.22-4.136-2.956-7.667-7.093-7.886-4.14-.24-7.666 2.956-7.885 7.093z"/><path d="m314.938 432.438c4.143 0 7.5-3.357 7.5-7.5v-12.966c0-19.735-5.678-37.395-14.817-46.086-15.486-14.726-26.315-46.672-28.261-83.371-.219-4.137-3.772-7.334-7.886-7.093-4.137.219-7.312 3.75-7.093 7.886 2.172 40.99 14.473 75.924 32.903 93.448 5.054 4.807 10.153 17.56 10.153 35.216v12.966c.001 4.142 3.358 7.5 7.501 7.5z"/><path d="m269.005 212.177c-10.016-7.654-21.047-7.654-31.062 0-3.291 2.515-3.921 7.222-1.405 10.513 2.515 3.29 7.22 3.921 10.513 1.405 4.623-3.533 8.225-3.533 12.848 0 1.359 1.039 2.96 1.542 4.548 1.541 2.257 0 4.489-1.015 5.965-2.946 2.514-3.292 1.884-7.999-1.407-10.513z"/><path d="m159.479 486.5h5.312c4.143 0 7.5-3.357 7.5-7.5s-3.357-7.5-7.5-7.5h-5.312c-4.143 0-7.5 3.357-7.5 7.5s3.358 7.5 7.5 7.5z"/><path d="m250.818 486.5h5.311c4.143 0 7.5-3.357 7.5-7.5s-3.357-7.5-7.5-7.5h-5.311c-4.143 0-7.5 3.357-7.5 7.5s3.358 7.5 7.5 7.5z"/><path d="m342.156 486.5h5.312c4.143 0 7.5-3.357 7.5-7.5s-3.357-7.5-7.5-7.5h-5.312c-4.143 0-7.5 3.357-7.5 7.5s3.358 7.5 7.5 7.5z"/><path d="m248.629 370.58v54.357c0 4.143 3.357 7.5 7.5 7.5s7.5-3.357 7.5-7.5v-54.357c0-4.143-3.357-7.5-7.5-7.5s-7.5 3.358-7.5 7.5z"/><path d="m388.115 174.008v21.164c0 4.143 3.357 7.5 7.5 7.5s7.5-3.357 7.5-7.5v-21.164c0-4.143-3.357-7.5-7.5-7.5s-7.5 3.357-7.5 7.5z"/><path d="m116.386 202.672c4.143 0 7.5-3.357 7.5-7.5v-21.164c0-4.143-3.357-7.5-7.5-7.5s-7.5 3.357-7.5 7.5v21.164c0 4.142 3.357 7.5 7.5 7.5z"/><path d="m419.66 200.514c4.143 0 7.5-3.357 7.5-7.5v-30.695c0-19.486-7.353-38.035-20.702-52.229-2.802-2.979-6.754-4.687-10.843-4.687s-8.041 1.708-10.842 4.687c-13.351 14.193-20.703 32.742-20.703 52.229v14.53h-16.22v-10.984c0-52.187-19.578-101.97-55.128-140.179l-13.444-14.449c-6.645-7.141-16.05-11.237-25.804-11.237s-19.159 4.096-25.804 11.236l-10.647 11.444c-2.821 3.032-2.65 7.777.382 10.6 3.034 2.82 7.779 2.649 10.601-.383l10.646-11.442c3.872-4.162 9.136-6.454 14.821-6.454s10.949 2.292 14.822 6.455l13.444 14.448c15.079 16.207 27.047 34.664 35.607 54.549h-127.744c5.296-12.271 11.912-24.038 19.802-35.134 2.4-3.376 1.609-8.058-1.767-10.458-3.376-2.401-8.059-1.609-10.458 1.767-24.913 35.04-38.081 76.271-38.081 119.237v10.984h-11.167v-14.53c0-19.487-7.353-38.035-20.703-52.229-2.801-2.979-6.752-4.687-10.841-4.688h-.001c-4.089 0-8.04 1.708-10.842 4.687-13.352 14.195-20.704 32.744-20.704 52.229v162.402c0 15.591 12.684 28.274 28.274 28.274h6.543c15.59 0 28.273-12.684 28.273-28.274v-92.031h11.167v125.634c-3.696 2.286-7.552 4.352-11.561 6.167-11.899 5.389-21.284 14.979-26.426 27.002-1.628 3.809.14 8.216 3.948 9.845 3.806 1.628 8.216-.14 9.845-3.948 3.662-8.565 10.347-15.396 18.82-19.234 37.801-17.116 64.087-53.375 68.602-94.624l6.717-61.376c1.841-16.816 9.46-32.646 21.455-44.574 1.641-1.633 4.311-1.633 5.951 0 11.995 11.928 19.614 27.758 21.455 44.573l6.717 61.377c4.515 41.249 30.801 77.508 68.602 94.624 13.248 6 21.809 19.274 21.809 33.818v34.027c-123.941 0-172.078 0-243.115 0v-21.77c0-4.143-3.357-7.5-7.5-7.5s-7.5 3.357-7.5 7.5v23.247c0 7.456 6.066 13.522 13.522 13.522h.885l-6.169 31.562c-.938 4.802.307 9.721 3.416 13.497 3.11 3.776 7.699 5.942 12.591 5.942h41.947c4.892 0 9.48-2.166 12.591-5.942 3.109-3.776 4.354-8.695 3.416-13.497l-6.168-31.562h29.715l-6.169 31.562c-.938 4.802.307 9.721 3.416 13.497 3.11 3.776 7.699 5.942 12.591 5.942h41.947c4.892 0 9.48-2.166 12.591-5.942 3.109-3.776 4.354-8.695 3.416-13.497l-6.169-31.562h29.715l-6.169 31.562c-.938 4.801.307 9.721 3.417 13.497 3.109 3.776 7.699 5.942 12.591 5.942h41.946c4.892 0 9.481-2.166 12.591-5.942s4.355-8.696 3.417-13.497l-6.169-31.562h.885c7.456 0 13.522-6.066 13.522-13.522v-35.505c0-20.42-12.02-39.058-30.621-47.482-4.008-1.815-7.865-3.881-11.561-6.167v-125.635h16.221v92.031c0 15.591 12.684 28.274 28.273 28.274h6.543c15.59 0 28.273-12.684 28.273-28.274v-101.718c0-4.143-3.357-7.5-7.5-7.5s-7.5 3.357-7.5 7.5v52.41h-33.09c0-24.662 0-90.615 0-113.093 0-15.61 5.875-30.472 16.545-41.861 10.67 11.389 16.545 26.25 16.545 41.861v30.695c.001 4.143 3.359 7.501 7.501 7.501zm-235.265 294.924c.098.502-.096.867-.275 1.085s-.5.478-1.011.478h-41.947c-.511 0-.832-.26-1.011-.478-.18-.218-.373-.583-.275-1.085l6.731-34.438h31.058zm91.338 0c.098.502-.096.867-.275 1.085s-.5.478-1.011.478h-41.947c-.511 0-.832-.26-1.011-.478-.18-.218-.373-.583-.275-1.085l6.731-34.438h31.057zm91.339 0c.098.502-.096.867-.275 1.085s-.5.478-1.012.478h-41.946c-.512 0-.833-.26-1.012-.478-.18-.218-.373-.583-.275-1.085l6.731-34.438h31.058zm-250.686-374.982c10.67 11.39 16.545 26.251 16.545 41.862v113.093h-33.091v-113.093c0-15.61 5.874-30.471 16.546-41.862zm3.271 217.538h-6.543c-7.319 0-13.274-5.955-13.274-13.274v-34.309h33.091v34.309c0 7.319-5.954 13.274-13.274 13.274zm28.274-120.306v-25.84h11.167v25.84zm151.6 64.208-6.717-61.376c-2.212-20.213-11.37-39.24-25.789-53.578-7.473-7.432-19.633-7.43-27.104 0-14.419 14.338-23.577 33.365-25.789 53.579l-6.717 61.375c-2.768 25.281-14.913 48.404-33.318 65.114 0-6.799 0-174.372 0-181.146 0-20.77 3.327-41.101 9.779-60.412h139.19c6.427 19.279 9.783 39.638 9.783 60.412v181.146c-18.405-16.709-30.55-39.832-33.318-65.114zm53.371-64.208v-25.84h11.168v25.84zm59.258 72.723v34.309c0 7.319-5.954 13.274-13.273 13.274h-6.543c-7.319 0-13.273-5.955-13.273-13.274v-34.309z"/></g></g></svg>